<svg xmlns="http://www.w3.org/2000/svg" fill="white" viewBox="0 0 308.76 64.79"><title>immajung_logo_svg</title><g id="Ebene_2" data-name="Ebene 2"><g id="Ebene_1-2" data-name="Ebene 1"><path d="M7.35,7H0V0H7.35Zm-.87,7.39v36H.87v-36Z"/><path d="M70.21,26.25V50.39H64.59V27.68c0-5.51-2.6-8.33-7.71-8.33-4.7,0-8.76,3.09-10.57,7.8V50.39H40.69V27.68c0-5.51-2.61-8.33-7.71-8.33-5.3,0-9.78,3.92-11.15,9.67V50.39H16.21v-36h5.62V24.66c1.64-6.74,6.41-11,12.21-11,6.68,0,11,3.65,12,9.74,1.9-6,6.41-9.74,11.87-9.74C65.6,13.66,70.21,18.47,70.21,26.25Z"/><path d="M133.28,26.25V50.39h-5.62V27.68c0-5.51-2.6-8.33-7.71-8.33-4.7,0-8.76,3.09-10.57,7.8V50.39h-5.62V27.68c0-5.51-2.61-8.33-7.71-8.33-5.3,0-9.78,3.92-11.15,9.67V50.39H79.28v-36H84.9V24.66c1.64-6.74,6.41-11,12.21-11,6.68,0,11,3.65,12,9.74,1.9-6,6.41-9.74,11.87-9.74C128.67,13.66,133.28,18.47,133.28,26.25Z"/><path d="M173.63,14.38v36h-5.12s-.5-4.82-.5-7.12V39.34c-1.29,6-4.61,11.77-12.06,11.77-8.41,0-15.48-7.79-15.48-18.65s7.07-18.8,16.21-18.8c7,0,10.1,4.2,11.33,10.25V14.38ZM168,32.46c0-7.95-3.5-13.25-10.68-13.25s-11.25,5.51-11.25,13.25,4.74,13.17,11.25,13.17C164.63,45.63,168,39.67,168,32.46Z"/><path d="M189.86,7h-7.34V0h7.34Zm-.79,7.39V64.79h-5.61V14.38Z"/><path d="M228.82,14.38v36h-5.61v-12c-.91,4.69-3.56,12.7-12.09,12.7-5.53,0-12.39-2.72-12.39-12.73v-24h5.61V36.94c0,6.46,3.38,8.48,7.86,8.48,7.56,0,10.18-6.65,11-10V14.38Z"/><path d="M268,26.25V50.39h-5.62V27.68c0-5.51-2.6-8.33-7.71-8.33-5.29,0-9.78,3.92-11.15,9.67V50.39h-5.62v-36h5.62V24.66c1.64-6.74,6.41-11,12.22-11C263.38,13.66,268,18.47,268,26.25Z"/><path d="M308.76,20.56a23.38,23.38,0,0,1-9.85-2.76,13.4,13.4,0,0,1,5.61,11.5c0,9.67-6.88,15.37-14.61,15.37-5.16.3-8.11.84-8.11,3.24,0,1.49,1.1,2.48,3.3,2.48h7.28c7.41,0,13.62,2.74,13.62,11.38v3h-5.62V63.2c0-5.07-2.64-7.33-7.92-7.33h-7c-6.32,0-9.27-2.23-9.27-6.12,0-4.7,4.37-6.17,8.4-6-5.3-2-9.41-7.06-9.41-14.38,0-9.6,6.93-15.66,14.73-15.66a13.94,13.94,0,0,1,4.46.73l14.39-.06Zm-9.87,8.75c0-6.42-4.32-10.12-9-10.12s-9.1,3.65-9.1,10.12,4.38,10,9.1,10S298.89,35.79,298.89,29.31Z"/></g></g></svg>