<?xml version="1.0" encoding="UTF-8" standalone="no"?>
<svg
   xmlns:dc="http://purl.org/dc/elements/1.1/"
   xmlns:cc="http://creativecommons.org/ns#"
   xmlns:rdf="http://www.w3.org/1999/02/22-rdf-syntax-ns#"
   xmlns:svg="http://www.w3.org/2000/svg"
   xmlns="http://www.w3.org/2000/svg"
   viewBox="0 0 1821.3333 1024"
   height="1024"
   width="1821.3333"
   xml:space="preserve"
   id="svg2"
   version="1.1"><metadata
     id="metadata8"><rdf:RDF><cc:Work
         rdf:about=""><dc:format>image/svg+xml</dc:format><dc:type
           rdf:resource="http://purl.org/dc/dcmitype/StillImage" /></cc:Work></rdf:RDF></metadata><defs
     id="defs6"><clipPath
       id="clipPath18"
       clipPathUnits="userSpaceOnUse"><path
         id="path16"
         d="M 0,768 H 1366 V 0 H 0 Z" /></clipPath></defs><g
     transform="matrix(1.3333333,0,0,-1.3333333,0,1024)"
     id="g10"><g
       id="g12"><g
         clip-path="url(#clipPath18)"
         id="g14"><g
           transform="translate(338.4819,450.5464)"
           id="g20"><path
             id="path22"
             style="fill:#000000;fill-opacity:1;fill-rule:nonzero;stroke:none"
             d="M 0,0 C -3.316,6.934 -4.972,10.414 -8.281,17.399 -0.893,22.893 2.805,25.672 10.21,31.287 18.459,30.271 22.591,29.811 30.866,28.978 23.44,23.218 19.731,20.365 12.322,14.718 15.645,7.832 17.308,4.401 20.637,-2.437 12.369,-1.554 8.241,-1.069 0,0" /></g><g
           transform="translate(427.106,486.6768)"
           id="g24"><path
             id="path26"
             style="fill:#000000;fill-opacity:1;fill-rule:nonzero;stroke:none"
             d="m 0,0 c -5.6,-17.36 -11.202,-34.72 -16.805,-52.08 -6.674,0.377 -10.007,0.588 -16.667,1.062 2.606,8.095 3.91,12.144 6.517,20.244 -6.333,0.429 -9.496,0.666 -15.815,1.188 -2.605,-8.079 -3.906,-12.117 -6.51,-20.19 -6.645,0.572 -9.965,0.884 -16.595,1.568 5.584,17.219 11.167,34.439 16.747,51.66 6.638,-0.62 9.961,-0.902 16.615,-1.416 -2.426,-7.47 -3.639,-11.203 -6.066,-18.668 6.322,-0.509 9.486,-0.739 15.821,-1.156 2.429,7.485 3.643,11.229 6.073,18.718 C -10.018,0.511 -6.681,0.326 0,0" /></g><g
           transform="translate(447.165,472.7246)"
           id="g28"><path
             id="path30"
             style="fill:#000000;fill-opacity:1;fill-rule:nonzero;stroke:none"
             d="m 0,0 c -0.825,-2.599 -1.237,-3.898 -2.061,-6.497 6.635,-0.219 9.956,-0.308 16.602,-0.451 -1.612,-4.941 -2.418,-7.411 -4.03,-12.35 -6.645,0.153 -9.965,0.248 -16.599,0.477 -0.935,-2.952 -1.403,-4.428 -2.338,-7.38 7.538,-0.268 11.31,-0.375 18.862,-0.544 -1.685,-5.236 -2.527,-7.854 -4.211,-13.088 -11.862,0.282 -23.721,0.71 -35.572,1.304 5.606,17.379 11.211,34.757 16.814,52.136 C -0.67,13.1 11.2,12.752 23.072,12.541 21.391,7.331 20.551,4.726 18.87,-0.484 11.315,-0.337 7.541,-0.242 0,0" /></g><g
           transform="translate(480.4849,444.9619)"
           id="g32"><path
             id="path34"
             style="fill:#000000;fill-opacity:1;fill-rule:nonzero;stroke:none"
             d="m 0,0 c 6.477,-0.054 9.718,-0.066 16.203,-0.063 -1.589,-4.991 -2.383,-7.485 -3.972,-12.475 -10.998,0.042 -21.986,0.15 -32.983,0.329 5.619,17.47 11.236,34.94 16.853,52.412 C 2.815,40.109 6.174,40.08 12.897,40.05 8.599,26.7 4.3,13.35 0,0" /></g><g
           transform="translate(518.8257,445.022)"
           id="g36"><path
             id="path38"
             style="fill:#000000;fill-opacity:1;fill-rule:nonzero;stroke:none"
             d="M 0,0 C 6.495,0.068 9.744,0.114 16.244,0.223 14.653,-4.781 13.857,-7.283 12.266,-12.287 1.241,-12.44 -9.78,-12.544 -20.807,-12.595 -15.179,4.941 -9.552,22.478 -3.926,40.014 2.807,40.057 6.176,40.092 12.916,40.183 8.611,26.788 4.306,13.394 0,0" /></g><g
           transform="translate(565.2173,468.647)"
           id="g40"><path
             id="path42"
             style="fill:#000000;fill-opacity:1;fill-rule:nonzero;stroke:none"
             d="m 0,0 c -2.357,-2.008 -4.082,-4.725 -5.176,-8.155 -0.344,-0.996 -0.596,-2.062 -0.759,-3.2 -0.408,-2.872 0.069,-5.105 1.434,-6.699 1.363,-1.594 3.616,-2.352 6.76,-2.27 3.142,0.083 5.908,1.145 8.294,3.185 2.385,2.038 4.093,4.725 5.124,8.058 0.35,1.046 0.607,2.137 0.769,3.276 0.415,2.92 -0.061,5.162 -1.429,6.725 -1.369,1.563 -3.6,2.302 -6.692,2.219 C 5.131,3.053 2.355,2.007 0,0 m 24.603,15.841 c 3.473,-1.843 5.949,-4.503 7.424,-7.98 1.475,-3.478 1.881,-7.543 1.219,-12.195 -0.275,-1.931 -0.775,-4.109 -1.528,-6.479 -1.496,-4.712 -3.876,-8.956 -7.031,-12.675 -3.156,-3.72 -6.945,-6.657 -11.367,-8.806 -4.423,-2.15 -9.245,-3.295 -14.465,-3.432 -5.272,-0.137 -9.645,0.722 -13.119,2.567 -3.476,1.847 -5.937,4.512 -7.386,7.988 -1.449,3.475 -1.844,7.541 -1.182,12.194 0.346,2.425 0.885,4.667 1.559,6.695 1.554,4.671 3.882,8.91 7.056,12.579 3.173,3.668 6.981,6.563 11.426,8.692 4.444,2.129 9.277,3.262 14.499,3.404 5.121,0.14 9.42,-0.708 12.895,-2.552" /></g><g
           transform="translate(702.585,490.0937)"
           id="g44"><path
             id="path46"
             style="fill:#000000;fill-opacity:1;fill-rule:nonzero;stroke:none"
             d="m 0,0 c -9.75,-17.725 -19.495,-35.452 -29.236,-53.182 -8.399,-0.253 -12.6,-0.388 -21.003,-0.664 1.112,9.94 2.223,19.879 3.335,29.819 -5.273,-10.077 -10.546,-20.156 -15.818,-30.234 -8.403,-0.282 -12.606,-0.427 -21.009,-0.709 1.529,17.491 3.059,34.982 4.588,52.473 7.278,0.244 10.916,0.368 18.194,0.614 -1.926,-11.051 -3.853,-22.101 -5.78,-33.153 5.986,11.188 11.973,22.375 17.959,33.562 7.368,0.245 11.052,0.366 18.418,0.598 -1.14,-11.026 -2.28,-22.051 -3.42,-33.076 5.197,11.149 10.395,22.299 15.593,33.448 C -10.905,-0.29 -7.27,-0.187 0,0" /></g><g
           transform="translate(720.5713,473.2993)"
           id="g48"><path
             id="path50"
             style="fill:#000000;fill-opacity:1;fill-rule:nonzero;stroke:none"
             d="m 0,0 c -2.355,-1.998 -4.079,-4.711 -5.174,-8.14 -0.344,-0.994 -0.596,-2.06 -0.758,-3.199 -0.409,-2.871 0.07,-5.106 1.432,-6.706 1.363,-1.601 3.614,-2.371 6.754,-2.313 3.139,0.057 5.899,1.089 8.282,3.102 2.382,2.011 4.087,4.679 5.116,8.004 0.35,1.042 0.607,2.131 0.769,3.271 0.416,2.92 -0.059,5.174 -1.424,6.76 C 13.632,2.363 11.404,3.133 8.317,3.08 5.127,3.024 2.354,1.996 0,0 m 24.565,15.58 c 3.464,-1.911 5.931,-4.635 7.4,-8.157 1.468,-3.524 1.87,-7.614 1.208,-12.267 -0.275,-1.93 -0.774,-4.103 -1.526,-6.464 -1.493,-4.691 -3.867,-8.891 -7.013,-12.554 -3.149,-3.663 -6.928,-6.534 -11.34,-8.618 -4.414,-2.087 -9.228,-3.173 -14.443,-3.27 -5.266,-0.099 -9.638,0.77 -13.112,2.614 -3.475,1.845 -5.939,4.497 -7.389,7.963 -1.451,3.464 -1.846,7.523 -1.184,12.176 0.345,2.425 0.885,4.668 1.56,6.699 1.554,4.676 3.883,8.927 7.058,12.607 3.175,3.677 6.985,6.579 11.428,8.698 4.441,2.119 9.271,3.227 14.486,3.315 5.114,0.086 9.403,-0.831 12.867,-2.742" /></g><g
           transform="translate(776.7568,468.3364)"
           id="g52"><path
             id="path54"
             style="fill:#000000;fill-opacity:1;fill-rule:nonzero;stroke:none"
             d="m 0,0 c 2.665,-0.012 3.997,-0.021 6.66,-0.043 3.279,-0.027 5.381,1.435 6.308,4.398 0.086,0.247 0.157,0.568 0.213,0.965 0.155,1.088 -0.063,1.947 -0.657,2.573 C 11.932,8.519 10.954,8.84 9.593,8.853 6.931,8.877 5.599,8.887 2.934,8.901 1.761,5.341 1.174,3.561 0,0 M 28.062,18.595 C 30.695,15.986 31.713,12.572 31.114,8.365 30.945,7.177 30.688,6.09 30.348,5.105 29.186,1.556 27.166,-1.541 24.29,-4.19 21.412,-6.84 17.924,-8.726 13.823,-9.862 c 2.091,-8.092 3.136,-12.141 5.224,-20.25 -7.374,0.135 -11.065,0.18 -18.451,0.234 -1.651,7.564 -2.476,11.343 -4.128,18.897 -2.406,-7.54 -3.61,-11.31 -6.017,-18.852 -6.725,0.013 -10.09,0.003 -16.823,-0.04 5.626,17.538 11.254,35.074 16.882,52.61 10.002,0.02 14.999,0.001 24.982,-0.114 5.748,-0.067 9.937,-1.42 12.57,-4.028" /></g><g
           transform="translate(821.8066,450.0615)"
           id="g56"><path
             id="path58"
             style="fill:#000000;fill-opacity:1;fill-rule:nonzero;stroke:none"
             d="m 0,0 c 6.452,-0.225 9.676,-0.355 16.117,-0.658 -1.583,-4.948 -2.374,-7.424 -3.957,-12.374 -10.961,0.449 -21.909,0.81 -32.875,1.09 5.613,17.446 11.228,34.892 16.843,52.338 6.7,-0.188 10.048,-0.3 16.736,-0.568 C 8.575,26.552 4.287,13.276 0,0" /></g><g
           transform="translate(874.4551,452.4502)"
           id="g60"><path
             id="path62"
             style="fill:#000000;fill-opacity:1;fill-rule:nonzero;stroke:none"
             d="m 0,0 c 2.86,1.828 4.882,4.59 6.066,8.299 0.383,1.27 0.618,2.202 0.703,2.796 0.408,2.871 -0.203,5.153 -1.832,6.836 -1.627,1.682 -4.067,2.651 -7.315,2.888 -1.59,0.117 -2.385,0.174 -3.975,0.285 -3.015,-9.269 -4.524,-13.905 -7.541,-23.179 1.591,-0.105 2.387,-0.159 3.978,-0.269 C -6.166,-2.605 -2.862,-1.829 0,0 m 15.217,-6.193 c -3.511,-3.733 -7.713,-6.55 -12.608,-8.474 -4.894,-1.924 -10.117,-2.687 -15.669,-2.307 -8.853,0.606 -13.286,0.864 -22.163,1.304 5.601,17.358 11.202,34.716 16.806,52.073 8.867,-0.507 13.295,-0.801 22.137,-1.483 4.895,-0.377 8.963,-1.612 12.203,-3.681 3.239,-2.068 5.558,-4.775 6.954,-8.096 1.394,-3.323 1.8,-7.043 1.215,-11.152 C 23.859,10.358 23.461,8.615 22.894,6.765 21.286,1.854 18.728,-2.46 15.217,-6.193" /></g><g
           transform="translate(906.0312,473.3867)"
           id="g64"><path
             id="path66"
             style="fill:#000000;fill-opacity:1;fill-rule:nonzero;stroke:none"
             d="m 0,0 c 8.269,-0.882 12.396,-1.367 20.639,-2.437 3.311,-6.963 4.965,-10.458 8.27,-17.473 -7.384,-5.465 -11.08,-8.228 -18.481,-13.814 -8.249,1.017 -12.38,1.476 -20.656,2.309 7.422,5.73 11.128,8.569 18.534,14.186 C 4.987,-10.313 3.326,-6.867 0,0" /></g><g
           transform="translate(632.7451,404.9673)"
           id="g68"><path
             id="path70"
             style="fill:none;stroke:#000000;stroke-width:7;stroke-linecap:butt;stroke-linejoin:miter;stroke-miterlimit:10;stroke-dasharray:none;stroke-opacity:1"
             d="m 0,0 c 24.155,0 43.737,-19.468 43.737,-43.484 0,-24.015 -19.582,-43.483 -43.737,-43.483 -24.156,0 -43.738,19.468 -43.738,43.483 C -43.738,-19.468 -24.156,0 0,0 Z" /></g><g
           transform="translate(632.7451,404.9673)"
           id="g72"><path
             id="path74"
             style="fill:none;stroke:#000000;stroke-width:7;stroke-linecap:butt;stroke-linejoin:miter;stroke-miterlimit:10;stroke-dasharray:none;stroke-opacity:1"
             d="m 0,0 c -2.502,-1.433 -19.965,-11.832 -23.921,-33.655 -3.656,-20.17 5.733,-41.785 23.649,-53.312" /></g><g
           transform="translate(632.9575,404.9673)"
           id="g76"><path
             id="path78"
             style="fill:none;stroke:#000000;stroke-width:7;stroke-linecap:butt;stroke-linejoin:miter;stroke-miterlimit:10;stroke-dasharray:none;stroke-opacity:1"
             d="M 0,0 C 2.386,-1.433 19.035,-11.832 22.806,-33.655 26.292,-53.825 17.341,-75.44 0.259,-86.967" /></g><g
           transform="translate(632.7451,404.9673)"
           id="g80"><path
             id="path82"
             style="fill:none;stroke:#000000;stroke-width:7;stroke-linecap:butt;stroke-linejoin:miter;stroke-miterlimit:10;stroke-dasharray:none;stroke-opacity:1"
             d="M 0,0 V -86.959" /></g><g
           transform="translate(589.0073,361.4834)"
           id="g84"><path
             id="path86"
             style="fill:none;stroke:#000000;stroke-width:7;stroke-linecap:butt;stroke-linejoin:miter;stroke-miterlimit:10;stroke-dasharray:none;stroke-opacity:1"
             d="M 0,0 H 87.475" /></g><g
           transform="translate(603.3164,393.6523)"
           id="g88"><path
             id="path90"
             style="fill:none;stroke:#000000;stroke-width:7;stroke-linecap:butt;stroke-linejoin:miter;stroke-miterlimit:10;stroke-dasharray:none;stroke-opacity:1"
             d="m 0,0 c 5.052,-2.688 15.629,-7.438 29.745,-7.355 13.288,0.078 23.309,4.401 28.345,7.004" /></g></g></g></g></svg>