<?xml version="1.0" encoding="UTF-8" standalone="no"?><!DOCTYPE svg PUBLIC "-//W3C//DTD SVG 1.1//EN" "http://www.w3.org/Graphics/SVG/1.1/DTD/svg11.dtd"><svg width="100%" height="100%" viewBox="0 0 1299 408" version="1.1" xmlns="http://www.w3.org/2000/svg" xmlns:xlink="http://www.w3.org/1999/xlink" xml:space="preserve" xmlns:serif="http://www.serif.com/" style="fill-rule:evenodd;clip-rule:evenodd;stroke-miterlimit:10;"><g><path d="M18.517,88.333c-7.114,-14.876 -10.666,-22.342 -17.765,-37.327c15.85,-11.787 23.783,-17.749 39.67,-29.795c17.697,2.18 26.561,3.167 44.314,4.954c-15.931,12.357 -23.888,18.478 -39.783,30.592c7.129,14.773 10.696,22.134 17.838,36.804c-17.738,-1.894 -26.594,-2.935 -44.274,-5.228" style="fill-rule:nonzero;"/><path d="M208.648,10.82c-12.014,37.244 -24.032,74.487 -36.053,111.73c-14.318,-0.808 -21.468,-1.261 -35.757,-2.278c5.591,-17.367 8.389,-26.053 13.982,-43.431c-13.587,-0.92 -20.373,-1.428 -33.929,-2.548c-5.589,17.332 -8.38,25.995 -13.966,43.315c-14.256,-1.228 -21.379,-1.897 -35.603,-3.364c11.98,-36.941 23.958,-73.884 35.929,-110.83c14.241,1.331 21.37,1.936 35.645,3.038c-5.205,16.026 -7.807,24.035 -13.014,40.05c13.563,1.092 20.351,1.585 33.942,2.48c5.211,-16.058 7.815,-24.09 13.029,-40.157c14.303,0.899 21.462,1.296 35.795,1.995" style="fill-rule:nonzero;"/><path d="M251.682,40.753c-1.77,5.575 -2.654,8.362 -4.422,13.938c14.235,0.47 21.359,0.661 35.617,0.968c-3.458,10.6 -5.187,15.899 -8.646,26.495c-14.255,-0.328 -21.378,-0.532 -35.61,-1.024c-2.006,6.334 -3.01,9.5 -5.016,15.833c16.172,0.575 24.264,0.805 40.466,1.167c-3.615,11.233 -5.422,16.85 -9.035,28.079c-25.448,-0.605 -50.89,-1.523 -76.314,-2.798c12.027,-37.284 24.051,-74.566 36.072,-111.85c25.45,1.087 50.916,1.834 76.385,2.287c-3.606,11.177 -5.408,16.766 -9.014,27.943c-16.209,-0.315 -24.305,-0.519 -40.483,-1.038" style="fill-rule:nonzero;"/><path d="M323.165,100.314c13.895,0.115 20.848,0.141 34.761,0.135c-3.409,10.707 -5.112,16.058 -8.521,26.763c-23.595,-0.09 -47.168,-0.322 -70.761,-0.706c12.055,-37.479 24.106,-74.959 36.156,-112.442c14.404,0.201 21.61,0.264 36.033,0.328c-9.22,28.641 -18.443,57.281 -27.668,85.922" style="fill-rule:nonzero;"/><path d="M405.419,100.185c13.935,-0.146 20.905,-0.245 34.85,-0.479c-3.414,10.736 -5.121,16.103 -8.535,26.839c-23.652,0.328 -47.296,0.551 -70.953,0.66c12.074,-37.621 24.146,-75.244 36.216,-112.865c14.445,-0.092 21.672,-0.167 36.132,-0.362c-9.236,28.737 -18.472,57.472 -27.71,86.207" style="fill-rule:nonzero;"/><path d="M504.946,49.501c-5.057,4.307 -8.757,10.136 -11.104,17.495c-0.738,2.137 -1.279,4.424 -1.629,6.865c-0.875,6.162 0.148,10.952 3.077,14.372c2.924,3.42 7.757,5.046 14.502,4.87c6.741,-0.178 12.675,-2.457 17.794,-6.833c5.117,-4.372 8.781,-10.137 10.993,-17.287c0.751,-2.244 1.302,-4.585 1.65,-7.029c0.89,-6.264 -0.131,-11.074 -3.066,-14.427c-2.937,-3.353 -7.723,-4.939 -14.357,-4.761c-6.852,0.185 -12.808,2.429 -17.86,6.735m52.782,-33.985c7.451,3.954 12.763,9.661 15.927,17.12c3.165,7.461 4.036,16.182 2.616,26.163c-0.59,4.142 -1.663,8.815 -3.278,13.899c-3.21,10.109 -8.316,19.214 -15.084,27.193c-6.771,7.98 -14.9,14.281 -24.387,18.892c-9.489,4.612 -19.834,7.069 -31.032,7.363c-11.311,0.294 -20.692,-1.549 -28.145,-5.507c-7.458,-3.963 -12.737,-9.68 -15.846,-17.138c-3.109,-7.455 -3.956,-16.178 -2.536,-26.16c0.743,-5.203 1.899,-10.012 3.345,-14.363c3.334,-10.021 8.328,-19.115 15.138,-26.987c6.807,-7.869 14.976,-14.08 24.512,-18.647c9.534,-4.568 19.903,-6.998 31.106,-7.303c10.986,-0.3 20.209,1.519 27.664,5.475" style="fill-rule:nonzero;"/><path d="M799.649,3.49c-20.917,38.026 -41.824,76.057 -62.722,114.094c-18.019,0.543 -27.031,0.833 -45.059,1.425c2.386,-21.325 4.769,-42.648 7.155,-63.973c-11.312,21.619 -22.625,43.242 -33.935,64.863c-18.028,0.605 -27.045,0.916 -45.072,1.521c3.28,-37.524 6.563,-75.049 9.843,-112.573c15.614,-0.524 23.419,-0.79 39.033,-1.318c-4.132,23.709 -8.267,47.415 -12.401,71.125c12.842,-24.002 25.687,-48.002 38.529,-72.002c15.807,-0.526 23.71,-0.785 39.513,-1.283c-2.446,23.655 -4.891,47.307 -7.337,70.96c11.149,-23.919 22.301,-47.839 33.453,-71.758c15.605,-0.459 23.403,-0.68 39,-1.081" style="fill-rule:nonzero;"/><path d="M838.236,39.52c-5.052,4.286 -8.751,10.107 -11.1,17.463c-0.738,2.132 -1.279,4.419 -1.626,6.863c-0.878,6.159 0.15,10.954 3.072,14.387c2.924,3.434 7.753,5.086 14.49,4.962c6.734,-0.122 12.655,-2.336 17.768,-6.655c5.11,-4.314 8.768,-10.038 10.975,-17.171c0.751,-2.236 1.302,-4.572 1.65,-7.018c0.892,-6.264 -0.127,-11.1 -3.055,-14.502c-2.928,-3.399 -7.708,-5.051 -14.331,-4.937c-6.844,0.12 -12.793,2.326 -17.843,6.608m52.701,-33.425c7.431,4.1 12.724,9.944 15.875,17.5c3.15,7.56 4.012,16.334 2.592,26.317c-0.59,4.14 -1.661,8.802 -3.274,13.867c-3.203,10.064 -8.296,19.075 -15.045,26.933c-6.756,7.859 -14.863,14.018 -24.329,18.489c-9.469,4.477 -19.797,6.807 -30.985,7.015c-11.297,0.213 -20.677,-1.652 -28.13,-5.608c-7.455,-3.958 -12.741,-9.647 -15.852,-17.083c-3.113,-7.432 -3.96,-16.14 -2.54,-26.122c0.74,-5.203 1.899,-10.015 3.347,-14.372c3.334,-10.031 8.33,-19.151 15.142,-27.046c6.811,-7.889 14.985,-14.115 24.517,-18.661c9.527,-4.546 19.889,-6.923 31.077,-7.112c10.972,-0.184 20.173,1.783 27.605,5.883" style="fill-rule:nonzero;"/><path d="M958.774,50.167c5.717,0.026 8.575,0.045 14.288,0.092c7.035,0.058 11.544,-3.078 13.533,-9.435c0.185,-0.53 0.337,-1.219 0.457,-2.07c0.333,-2.335 -0.135,-4.177 -1.41,-5.52c-1.27,-1.343 -3.368,-2.032 -6.288,-2.06c-5.71,-0.051 -8.568,-0.073 -14.285,-0.103c-2.517,7.638 -3.776,11.456 -6.295,19.096m60.203,-39.893c5.649,5.597 7.833,12.921 6.548,21.947c-0.363,2.549 -0.914,4.881 -1.644,6.994c-2.493,7.614 -6.826,14.258 -12.996,19.941c-6.175,5.685 -13.658,9.731 -22.456,12.168c4.486,17.361 6.728,26.047 11.208,43.444c-15.82,-0.29 -23.739,-0.386 -39.584,-0.502c-3.542,-16.228 -5.312,-24.335 -8.856,-40.541c-5.162,16.176 -7.745,24.264 -12.909,40.444c-14.428,-0.027 -21.647,-0.006 -36.091,0.086c12.069,-37.625 24.144,-75.246 36.218,-112.867c21.457,-0.043 32.178,-0.002 53.595,0.244c12.331,0.144 21.318,3.047 26.967,8.642" style="fill-rule:nonzero;"/><path d="M1055.42,89.373c13.842,0.483 20.758,0.762 34.577,1.412c-3.396,10.615 -5.093,15.927 -8.489,26.546c-23.516,-0.963 -47.003,-1.737 -70.529,-2.338c12.042,-37.428 24.088,-74.856 36.134,-112.284c14.374,0.404 21.557,0.644 35.905,1.219c-9.202,28.482 -18.401,56.963 -27.598,85.445" style="fill-rule:nonzero;"/><path d="M1168.37,84.249c6.136,-3.922 10.474,-9.848 13.014,-17.805c0.821,-2.724 1.325,-4.724 1.508,-5.998c0.875,-6.16 -0.436,-11.055 -3.931,-14.666c-3.49,-3.608 -8.725,-5.687 -15.693,-6.196c-3.411,-0.251 -5.116,-0.373 -8.528,-0.611c-6.468,19.885 -9.705,29.831 -16.178,49.727c3.414,0.225 5.121,0.341 8.534,0.577c8.046,0.56 15.134,-1.105 21.274,-5.028m32.646,13.286c-7.533,8.008 -16.547,14.052 -27.049,18.179c-10.499,4.128 -21.704,5.765 -33.616,4.95c-18.992,-1.3 -28.503,-1.854 -47.547,-2.798c12.016,-37.239 24.032,-74.478 36.055,-111.715c19.023,1.088 28.522,1.718 47.492,3.182c10.501,0.808 19.228,3.458 26.179,7.897c6.949,4.436 11.924,10.244 14.919,17.368c2.991,7.13 3.862,15.11 2.607,23.926c-0.5,3.503 -1.354,7.242 -2.57,11.211c-3.45,10.536 -8.938,19.791 -16.47,27.8" style="fill-rule:nonzero;"/><path d="M1236.11,39.332c17.74,1.892 26.594,2.933 44.278,5.228c7.103,14.939 10.652,22.437 17.742,37.486c-15.841,11.725 -23.771,17.652 -39.648,29.636c-17.697,-2.182 -26.56,-3.166 -44.315,-4.953c15.923,-12.293 23.874,-18.384 39.762,-30.434c-7.12,-14.838 -10.684,-22.231 -17.819,-36.963" style="fill-rule:nonzero;"/><ellipse cx="649.816" cy="279.404" rx="93.833" ry="93.288" style="fill:none;stroke:#000;stroke-width:7px;"/><path d="M649.817,186.116c-5.367,3.075 -42.832,25.384 -51.319,72.202c-7.843,43.272 12.3,89.644 50.736,114.374" style="fill:none;stroke:#000;stroke-width:7px;"/><path d="M650.273,186.116c5.119,3.075 40.837,25.384 48.927,72.202c7.479,43.272 -11.724,89.644 -48.371,114.374" style="fill:none;stroke:#000;stroke-width:7px;"/><path d="M649.817,186.116l0,186.559" style="fill:none;stroke:#000;stroke-width:7px;"/><path d="M555.984,279.405l187.665,0" style="fill:none;stroke:#000;stroke-width:7px;"/><path d="M586.682,210.391c10.839,5.767 33.53,15.957 63.814,15.779c28.507,-0.167 50.006,-9.442 60.81,-15.026" style="fill:none;stroke:#000;stroke-width:7px;"/></g></svg>